<svg xmlns="http://www.w3.org/2000/svg" viewBox="0 0 64 64" role="img" aria-label="Sweetwater Ukes favicon">
  <defs>
    <linearGradient id="bg" x1="0" y1="0" x2="1" y2="1">
      <stop offset="0" stop-color="#f7efe3"/>
      <stop offset="1" stop-color="#ead9bf"/>
    </linearGradient>
    <linearGradient id="body" x1="0" y1="0" x2="1" y2="1">
      <stop offset="0" stop-color="#c97a35"/>
      <stop offset="1" stop-color="#8f4b1d"/>
    </linearGradient>
  </defs>
  <rect x="4" y="4" width="56" height="56" rx="16" fill="url(#bg)"/>
  <circle cx="24" cy="37" r="11" fill="url(#body)"/>
  <circle cx="34" cy="24" r="9" fill="url(#body)"/>
  <rect x="32" y="17" width="18" height="8" rx="4" fill="#115e59"/>
  <rect x="43" y="14" width="6" height="18" rx="3" fill="#115e59"/>
  <circle cx="24" cy="37" r="3.4" fill="#2f2017" opacity="0.72"/>
  <path d="M17 28.5c0 6.3 0 11 0 17" stroke="#fff7ef" stroke-width="1.5" stroke-linecap="round"/>
  <path d="M21 26.8c0 6.7 0 12 0 19.2" stroke="#fff7ef" stroke-width="1.5" stroke-linecap="round"/>
  <path d="M25 26c0 6.9 0 12.3 0 19.8" stroke="#fff7ef" stroke-width="1.5" stroke-linecap="round"/>
  <path d="M29 26.4c0 6.6 0 11.9 0 19.1" stroke="#fff7ef" stroke-width="1.5" stroke-linecap="round"/>
  <circle cx="45.5" cy="18" r="1.1" fill="#f7efe3"/>
  <circle cx="45.5" cy="21.2" r="1.1" fill="#f7efe3"/>
  <circle cx="45.5" cy="24.4" r="1.1" fill="#f7efe3"/>
  <circle cx="45.5" cy="27.6" r="1.1" fill="#f7efe3"/>
  <path d="M10 47c7 4.8 15.1 7 24.2 6.8 9-.2 15.5-2.6 20.1-7.3" fill="none" stroke="#115e59" stroke-opacity="0.18" stroke-width="3" stroke-linecap="round"/>
</svg>
